#N canvas 564 46 906 919 12;
#X declare -path odot;
#X obj 191 329 netsend -u -b, f 18;
#X obj 205 263 loadbang;
#X obj 191 361 print sentBytes;
#X msg 205 296 connect localhost 9999 7777;
#X msg 428 295 disconnect;
#N canvas 882 195 450 300 bytes2bundle 0;
#X obj 52 27 inlet;
#X obj 52 261 outlet;
#X obj 52 65 o.pack /list;
#X obj 52 101 o.expr.codebox 199 23 binhex b#2F626E646C203D2062756E646C65282F
b#6C69737429;
#X obj 52 156 o.route /bndl;
#X connect 0 0 2 0;
#X connect 2 0 3 0;
#X connect 3 0 4 0;
#X connect 4 0 1 0;
#X restore 314 363 pd bytes2bundle;
#X obj 611 203 declare -path odot;
#X obj 161 452 o.compose 323 159 binhex b#2F6576656E74203A207B0A20202F6B65
b#79203A202273796E63222C0A20202F76 b#616C203A207B0A202020202F73796E63
b#4F6666736574203A20302E330A20207D b#0A7D2C0A2F66726F6D203A207B0A2020
b#2F75726C203A20222F666F6F222C0A20 b#202F6970203A20223A3A31222C0A2020
b#2F756E697175656964203A20224E634D b#3642444237625750316E426E2B75784B
b#4F65673D3D220A7D;
#N canvas 882 195 424 498 bundle2bytes 0;
#X obj 52 27 inlet;
#X obj 92 287 outlet;
#X obj 52 101 o.expr.codebox 199 23 binhex b#2F626C6F62203D20626C6F62282F626E
b#646C29;
#X obj 52 65 o.pack /bndl;
#X obj 52 157 o.route /blob;
#X obj 52 187 list split 1;
#X obj 92 250 list trim;
#X obj 92 220 list prepend send;
#X connect 0 0 3 0;
#X connect 2 0 4 0;
#X connect 3 0 2 0;
#X connect 4 0 5 0;
#X connect 5 1 7 0;
#X connect 6 0 1 0;
#X connect 7 0 6 0;
#X restore 190 222 pd bundle2bytes;
#X obj 190 47 o.compose 323 145 binhex b#2F2A203A207B0A20202F6B6579203A20
b#22737667222C0A20202F76616C203A20 b#7B0A202020202F6E6577203A20226369
b#72636C65222C0A202020202F6378203A b#203130302C0A202020202F6379203A20
b#3130302C0A202020202F72203A203430 b#2C0A202020202F66696C6C203A202270
b#7572706C65220A20207D0A7D;
#X connect 0 0 2 0;
#X connect 0 1 5 0;
#X connect 1 0 3 0;
#X connect 3 0 0 0;
#X connect 4 0 0 0;
#X connect 5 0 7 1;
#X connect 8 0 0 0;
#X connect 9 0 8 0;
