#N canvas 876 157 450 300 12;
#X obj 78 146 netsend -u -b, f 18;
#X obj 220 239 print osc-in;
#N canvas 0 23 450 300 recv-msg 0;
#X obj 141 67 inlet;
#X obj 141 175 outlet;
#X obj 140 125 list trim;
#X obj 140 100 oscparse;
#X connect 0 0 3 0;
#X connect 2 0 1 0;
#X connect 3 0 2 0;
#X restore 201 198 pd recv-msg;
#X obj 92 80 loadbang;
#X obj 78 178 print sentBytes;
#X obj 78 17 r osc_send;
#N canvas 0 23 450 300 send-msg 0;
#X obj 141 67 inlet;
#X obj 141 175 outlet;
#X obj 140 100 list prepend send;
#X obj 140 125 list trim;
#X connect 0 0 2 0;
#X connect 2 0 3 0;
#X connect 3 0 1 0;
#X restore 78 48 pd send-msg;
#X msg 92 113 connect localhost 9999 7777;
#X msg 315 112 disconnect;
#X connect 0 0 4 0;
#X connect 0 1 2 0;
#X connect 2 0 1 0;
#X connect 3 0 7 0;
#X connect 5 0 6 0;
#X connect 6 0 0 0;
#X connect 7 0 0 0;
#X connect 8 0 0 0;
